# xmcd
# 
# Track frame offsets:
#     150
#     12724
#     27625
#     32653
#     44072
#     62716
#     70664
#     83762
#     90732
#     107712
#     120904
#     137492
#     150346
# 
# Disc length: 2185
# 
# Revision: 3
# Processed by: cddbd v1.5.2PL0 Copyright (c) Steve Scherf et al.
# Submitted via: fre:ac v1.0.31
# 
DISCID=a508870d
DTITLE=Emmylou Harris - The Ballad Of Sally Rose Disc 1
DYEAR=1985
DGENRE=Country
TTITLE0=The Ballad Of Sally Rose
TTITLE1=Rhythm Guitar
TTITLE2=I Think I Love Him and You Are My Flower
TTITLE3=Heart To Heart
TTITLE4=Woman Walk The Line
TTITLE5=Bad News
TTITLE6=Timberline
TTITLE7=Long Tall Sally Rose
TTITLE8=White Line
TTITLE9=Diamond In My Crown
TTITLE10=The Sweetheart Of The Rodeo
TTITLE11=K-S-O-S  ((Ring Of Fire and Wildwood Flower and Six Days On The Road))
TTITLE12=Sweet Chariot
EXTD=
EXTT0=
EXTT1=
EXTT2=
EXTT3=
EXTT4=
EXTT5=
EXTT6=
EXTT7=
EXTT8=
EXTT9=
EXTT10=
EXTT11=
EXTT12=
PLAYORDER=
